# xmcd CD database file
#
# Track frame offsets:
#	150
#	13862
#	25640
#	42700
#	53925
#	67225
#	78675
#	90562
#	103650
#	118725
#	130062
#	141612
#	153375
#	164552
#	173300
#	185537
#	196650
#	207180
#	220937
#	234337
#	245837
#	257112
#	268525
#	280237
#	293762
#	304837
#	319250
#
# Disc length: 4402 seconds
#
# Revision: 0
# Processed by: cddbd v1.5.1PL0 Copyright (c) Steve Scherf et al.
# Submitted via: CDex 1.51
#
DISCID=9811301b
DTITLE=Juan D'arienzo - Juan D'arienzo Best Selection
DYEAR=1994
DGENRE=Tango
TTITLE0=FELICIA
TTITLE1=CANARO EN PARIS
TTITLE2=LA CUMPARSITA
TTITLE3=INDEPENDENCIA
TTITLE4=EL MARNE
TTITLE5=DON PACIFICO
TTITLE6=EL CHOCLO
TTITLE7=NUEVE DE JULIO
TTITLE8=ESTA NOCHE ME EMBORRACHO
TTITLE9=HOTEL VICTORIA
TTITLE10=EL SIMPATICO
TTITLE11=LOCA
TTITLE12=EL ENTREERRIANO
TTITLE13=LA PUNALADA
TTITLE14=EL TARTA
TTITLE15=LA MOROCHA
TTITLE16=PAMPA
TTITLE17=DON ORLAND
TTITLE18=EL POLLO RICARDO
TTITLE19=EL PUNTAZO
TTITLE20=NACI EN POMEYA
TTITLE21=EL INERNADO
TTITLE22=VIENTO SUR
TTITLE23=JUEVES
TTITLE24=HOMERO
TTITLE25=JOAQUINA
TTITLE26=DON JUAN
EXTD=YEAR: 1994
EXTT0=
EXTT1=
EXTT2=
EXTT3=
EXTT4=
EXTT5=
EXTT6=
EXTT7=
EXTT8=
EXTT9=
EXTT10=
EXTT11=
EXTT12=
EXTT13=
EXTT14=
EXTT15=
EXTT16=
EXTT17=
EXTT18=
EXTT19=
EXTT20=
EXTT21=
EXTT22=
EXTT23=
EXTT24=
EXTT25=
EXTT26=
PLAYORDER=
